<svg width="294" height="294" viewBox="0 0 294 294" fill="none" xmlns="http://www.w3.org/2000/svg">
<rect width="294" height="293.999" transform="matrix(1 0 0 -1 0 293.999)" fill="#2C6BFF"/>
<path d="M161.852 147.505L213.347 198.62L243.936 198.435L191.674 146.897L244 95.3196L213.808 94.9118L161.852 147.505Z" fill="#F5F8FF"/>
<path d="M147.722 132.018L198.917 80.6043L198.733 50.0648L147.113 102.243L95.454 49.9996L95.0454 80.1438L147.722 132.018Z" fill="#F5F8FF"/>
<path d="M132.148 146.027L80.6533 94.9118L50.0653 95.0963L102.326 146.635L50 198.212L80.1921 198.62L132.148 146.027Z" fill="#F5F8FF"/>
<path d="M146.278 161.98L95.0828 213.394L95.2673 243.934L146.887 191.755L198.546 243.999L198.954 213.854L146.278 161.98Z" fill="#F5F8FF"/>
</svg>
