<svg width="378" height="378" viewBox="0 0 378 378" fill="none" xmlns="http://www.w3.org/2000/svg">
<rect width="378" height="378" rx="38" fill="white"/>
<path d="M212 189.633L290.984 268L337.902 267.716L257.741 188.701L338 109.625L291.691 109L212 189.633Z" fill="#2C6BFF"/>
<path d="M190.141 166L269 87.0162L268.717 40.1002L189.203 120.258L109.629 40L109 86.3087L190.141 166Z" fill="#2C6BFF"/>
<path d="M166 187.367L87.0166 109L40.1002 109.283L120.259 188.299L40 267.374L86.3092 268L166 187.367Z" fill="#2C6BFF"/>
<path d="M187.86 212L109 290.984L109.284 337.9L188.798 257.741L268.372 338L269 291.69L187.86 212Z" fill="#2C6BFF"/>
</svg>
