<svg width="943" height="294" viewBox="0 0 943 294" fill="none" xmlns="http://www.w3.org/2000/svg">
<rect x="285" y="37" width="658" height="219" rx="26" fill="#2C6BFF"/>
<path d="M341.04 180.62V160.64H418.08V180.62H341.04ZM312.06 206L366.78 89.54H392.7L447.96 206H421.86L373.98 101.06H385.5L337.98 206H312.06ZM488.651 77.3V97.82H461.471V77.3H488.651ZM463.271 116.54H486.671V206H463.271V116.54ZM580.413 89.54V186.02H657.813V206H556.473V89.54H580.413ZM717.032 207.98C708.152 207.98 700.052 206.06 692.732 202.22C685.532 198.26 679.772 192.8 675.452 185.84C671.252 178.76 669.152 170.6 669.152 161.36C669.152 151.88 671.312 143.66 675.632 136.7C679.952 129.74 685.772 124.34 693.092 120.5C700.532 116.54 708.932 114.56 718.292 114.56C728.612 114.56 736.892 116.66 743.132 120.86C749.492 124.94 754.112 130.52 756.992 137.6C759.872 144.68 761.312 152.6 761.312 161.36C761.312 166.64 760.472 172.04 758.792 177.56C757.112 182.96 754.532 188 751.052 192.68C747.572 197.24 743.012 200.96 737.372 203.84C731.732 206.6 724.952 207.98 717.032 207.98ZM724.592 189.98C731.672 189.98 737.792 188.78 742.952 186.38C748.112 183.98 752.072 180.62 754.832 176.3C757.592 171.98 758.972 167 758.972 161.36C758.972 155.24 757.532 150.08 754.652 145.88C751.892 141.56 747.932 138.32 742.772 136.16C737.732 133.88 731.672 132.74 724.592 132.74C714.632 132.74 706.892 135.38 701.372 140.66C695.852 145.82 693.092 152.72 693.092 161.36C693.092 167.12 694.412 172.16 697.052 176.48C699.692 180.68 703.352 183.98 708.032 186.38C712.832 188.78 718.352 189.98 724.592 189.98ZM758.972 116.54H782.372V206H760.592C760.592 206 760.412 204.86 760.052 202.58C759.812 200.18 759.572 197.18 759.332 193.58C759.092 189.98 758.972 186.44 758.972 182.96V116.54ZM870.732 207.98C862.812 207.98 856.032 206.6 850.392 203.84C844.752 200.96 840.192 197.24 836.712 192.68C833.232 188 830.652 182.96 828.972 177.56C827.292 172.04 826.452 166.64 826.452 161.36C826.452 154.76 827.232 148.64 828.792 143C830.472 137.36 833.052 132.44 836.532 128.24C840.012 123.92 844.572 120.56 850.212 118.16C855.852 115.76 862.692 114.56 870.732 114.56C879.972 114.56 888.132 116.54 895.212 120.5C902.412 124.34 908.052 129.74 912.132 136.7C916.332 143.66 918.432 151.88 918.432 161.36C918.432 170.6 916.332 178.76 912.132 185.84C907.932 192.8 902.232 198.26 895.032 202.22C887.832 206.06 879.732 207.98 870.732 207.98ZM863.172 189.98C869.532 189.98 875.052 188.78 879.732 186.38C884.412 183.98 888.012 180.68 890.532 176.48C893.172 172.16 894.492 167.12 894.492 161.36C894.492 152.72 891.732 145.76 886.212 140.48C880.812 135.2 873.132 132.56 863.172 132.56C856.212 132.56 850.152 133.7 844.992 135.98C839.832 138.26 835.812 141.56 832.932 145.88C830.172 150.08 828.792 155.24 828.792 161.36C828.792 167 830.172 171.98 832.932 176.3C835.692 180.62 839.652 183.98 844.812 186.38C849.972 188.78 856.092 189.98 863.172 189.98ZM828.792 80.54V182.96C828.792 186.8 828.612 190.94 828.252 195.38C827.892 199.7 827.532 203.24 827.172 206H805.392V80.54H828.792Z" fill="white"/>
<path d="M161.852 147.505L213.347 198.62L243.936 198.435L191.674 146.897L244 95.3199L213.808 94.9121L161.852 147.505Z" fill="#2C6BFF"/>
<path d="M147.723 132.018L198.918 80.6047L198.734 50.0652L147.114 102.243L95.4555 50L95.0469 80.1442L147.723 132.018Z" fill="#2C6BFF"/>
<path d="M132.148 146.027L80.6533 94.9121L50.0653 95.0966L102.326 146.635L50 198.212L80.1921 198.62L132.148 146.027Z" fill="#2C6BFF"/>
<path d="M146.281 161.98L95.0859 213.394L95.2704 243.934L146.89 191.755L198.549 243.999L198.957 213.854L146.281 161.98Z" fill="#2C6BFF"/>
</svg>
