<svg width="1078" height="298" viewBox="0 0 1078 298" fill="none" xmlns="http://www.w3.org/2000/svg">
<path d="M404 84.6V191.8H490V214H377.4V84.6H404ZM659.65 167.4C658.45 177.8 654.783 186.667 648.65 194C642.517 201.333 634.183 206.933 623.65 210.8C613.117 214.667 600.583 216.6 586.05 216.6C573.917 216.6 562.783 215.2 552.65 212.4C542.65 209.6 533.983 205.4 526.65 199.8C519.45 194.2 513.85 187.267 509.85 179C505.85 170.6 503.85 160.8 503.85 149.6C503.85 138.4 505.85 128.6 509.85 120.2C513.85 111.8 519.45 104.8 526.65 99.2C533.983 93.4667 542.65 89.2 552.65 86.4C562.783 83.4667 573.917 82 586.05 82C600.583 82 613.117 84 623.65 88C634.317 92 642.717 97.7333 648.85 105.2C654.983 112.533 658.583 121.467 659.65 132H633.25C631.517 126.4 628.583 121.6 624.45 117.6C620.45 113.467 615.25 110.333 608.85 108.2C602.45 106.067 594.85 105 586.05 105C575.117 105 565.517 106.733 557.25 110.2C548.983 113.533 542.583 118.533 538.05 125.2C533.517 131.733 531.25 139.867 531.25 149.6C531.25 159.2 533.517 167.267 538.05 173.8C542.583 180.333 548.983 185.333 557.25 188.8C565.517 192.133 575.117 193.8 586.05 193.8C594.85 193.8 602.383 192.733 608.65 190.6C615.05 188.467 620.25 185.4 624.25 181.4C628.383 177.4 631.383 172.733 633.25 167.4H659.65ZM776.809 84.6H809.209L748.009 156L747.209 156.8L701.809 214H669.409L732.409 139L733.009 138.4L776.809 84.6ZM703.809 84.6L747.009 138.8L747.409 139.4L809.809 214H776.009L731.209 156L730.609 155.6L671.409 84.6H703.809ZM901.506 185.8V163.6H987.106V185.8H901.506ZM869.306 214L930.106 84.6H958.906L1020.31 214H991.306L938.106 97.4H950.906L898.106 214H869.306ZM1065.52 71V93.8H1035.32V71H1065.52ZM1037.32 114.6H1063.32V214H1037.32V114.6Z" fill="#2C6BFF"/>
<path d="M172 149.633L250.984 228L297.902 227.716L217.741 148.701L298 69.6252L251.691 69L172 149.633Z" fill="#2C6BFF"/>
<path d="M150.141 126L229 47.0162L228.717 0.100164L149.203 80.2584L69.6294 0L69 46.3087L150.141 126Z" fill="#2C6BFF"/>
<path d="M126 147.367L47.0166 69L0.100158 69.2829L80.2585 148.299L0 227.374L46.3092 228L126 147.367Z" fill="#2C6BFF"/>
<path d="M147.86 172L69 250.984L69.2842 297.9L148.798 217.741L228.372 298L229 251.69L147.86 172Z" fill="#2C6BFF"/>
</svg>
