<svg width="452" height="231" viewBox="0 0 452 231" fill="none" xmlns="http://www.w3.org/2000/svg">
<path d="M125.529 115.842L160.301 150.358L180.956 150.234L145.666 115.432L181 80.6034L160.612 80.328L125.529 115.842Z" fill="#2C6BFF"/>
<path d="M115.987 105.385L150.558 70.6667L150.433 50.0444L115.576 85.2786L80.6931 50.0004L80.4172 70.3557L115.987 105.385Z" fill="#2C6BFF"/>
<path d="M105.471 114.844L70.6989 80.328L50.0441 80.4526L85.3336 115.255L50 150.083L70.3874 150.358L105.471 114.844Z" fill="#2C6BFF"/>
<path d="M115.013 125.618L80.4424 160.335L80.567 180.958L115.424 145.724L150.307 181.002L150.582 160.646L115.013 125.618Z" fill="#2C6BFF"/>
<path d="M226.785 123.678C226.785 135.777 226.785 142.299 228.77 144.001C230.376 145.418 232.832 146.08 240.201 146.08C245.209 146.08 248.893 145.985 251.256 143.434C252.39 142.205 253.523 139.557 253.712 137.762C253.806 136.911 253.995 136.343 254.751 136.343C255.412 136.343 255.507 136.816 255.507 137.951C255.507 138.991 254.845 146.08 254.09 148.821C253.523 150.901 253.05 151.374 248.138 151.374C241.335 151.374 236.422 151.184 232.171 151.09C227.919 150.901 224.518 150.806 220.644 150.806C219.605 150.806 217.526 150.806 215.259 150.901C213.086 150.901 210.63 151.09 208.74 151.09C207.512 151.09 206.85 150.806 206.85 150.145C206.85 149.672 207.229 149.388 208.362 149.388C209.779 149.388 210.913 149.199 211.763 149.01C213.653 148.632 214.125 146.553 214.503 143.812C214.975 139.841 214.975 132.374 214.975 123.678V107.041C214.975 92.6732 214.975 90.026 214.787 87.0015C214.598 83.7877 213.842 82.2752 210.724 81.6132C209.968 81.4243 208.835 81.3299 207.607 81.3299C206.567 81.3299 206 81.141 206 80.4795C206 79.8174 206.661 79.6285 208.079 79.6285C212.519 79.6285 218.471 79.9118 221.022 79.9118C223.29 79.9118 230.186 79.6285 233.871 79.6285C235.194 79.6285 235.856 79.8174 235.856 80.4795C235.856 81.141 235.288 81.3299 234.154 81.3299C233.115 81.3299 231.604 81.4243 230.47 81.6132C227.919 82.0864 227.163 83.6933 226.974 87.0015C226.785 90.026 226.785 92.6732 226.785 107.041V123.678Z" fill="#2C6BFF"/>
<path d="M271.223 142.251C261.964 134.122 259.507 123.536 259.507 114.367C259.507 107.939 261.491 96.7848 270.561 88.4664C277.364 82.2282 286.339 78.4467 300.416 78.4467C306.274 78.4467 309.769 78.825 314.116 79.3921C317.706 79.8648 320.729 80.7157 323.563 80.999C324.603 81.0939 324.981 81.5661 324.981 82.1332C324.981 82.8897 324.697 84.0239 324.508 87.3322C324.319 90.4516 324.414 95.651 324.225 97.5408C324.13 98.9593 323.941 99.7153 323.091 99.7153C322.335 99.7153 322.146 98.9593 322.146 97.6352C322.052 94.7052 320.824 91.3964 318.461 88.9391C315.344 85.6304 307.975 83.0786 299.283 83.0786C291.063 83.0786 285.677 85.1582 281.521 88.9391C274.624 95.2728 272.828 104.253 272.828 113.421C272.828 135.919 289.93 147.073 302.589 147.073C310.998 147.073 316.1 146.127 319.879 141.779C321.485 139.983 322.714 137.242 323.091 135.54C323.375 134.028 323.563 133.65 324.319 133.65C324.981 133.65 325.169 134.312 325.169 135.068C325.169 136.202 324.036 144.426 323.091 147.64C322.619 149.247 322.241 149.72 320.635 150.381C316.856 151.893 309.675 152.555 303.628 152.555C290.685 152.555 279.82 149.72 271.223 142.251Z" fill="#2C6BFF"/>
<path d="M370.078 111.72C373.101 116.352 388.407 141.968 390.769 144.993C392.375 147.073 393.792 148.207 396.249 148.963C397.855 149.436 398.988 149.53 399.839 149.53C400.5 149.53 401.067 149.72 401.067 150.286C401.067 150.948 400.311 151.232 399.272 151.232H396.438C394.17 151.232 386.706 151.232 379.432 151.043C376.975 150.948 376.219 150.759 376.219 150.098C376.219 149.53 376.692 149.247 377.541 149.057C378.014 148.963 378.392 148.112 377.731 146.884C372.535 137.62 367.149 128.262 362.803 121.173L348.82 143.764C347.876 145.277 347.403 146.695 347.497 147.734C347.592 148.585 348.443 149.152 349.293 149.34C349.859 149.436 350.709 149.53 351.466 149.53C352.032 149.53 352.6 149.814 352.6 150.381C352.6 151.043 351.939 151.232 350.709 151.232H349.009C348.443 151.232 342.491 150.948 340.128 150.948C338.333 150.948 333.704 151.232 332.192 151.232H330.586C329.641 151.232 329.169 150.948 329.169 150.381C329.169 149.814 329.736 149.53 330.491 149.53C331.153 149.53 332.569 149.436 333.988 149.057C336.727 148.302 338.522 146.506 341.734 141.968L359.78 116.163L343.529 89.2235C341.262 85.4416 338.995 83.1731 335.688 82.1333C334.176 81.6606 332.665 81.4718 331.72 81.4718C331.153 81.4718 330.776 81.1879 330.776 80.5264C330.776 79.9593 331.436 79.7704 332.665 79.7704C334.932 79.7704 342.585 80.0537 347.025 80.0537C348.348 80.0537 353.639 79.7704 357.134 79.7704C358.457 79.7704 359.024 79.9593 359.024 80.6213C359.024 81.2829 358.457 81.4718 357.607 81.4718C357.04 81.4718 355.812 81.5662 355.056 81.8495C354.206 82.1333 353.922 82.7949 353.922 83.362C353.922 83.9296 354.3 85.0633 354.868 86.1041C358.929 93.6655 363.182 100.566 366.866 106.993C369.606 102.835 378.298 89.6957 379.715 87.049C380.47 85.7249 380.753 84.2129 380.753 83.4564C380.753 82.7949 380.092 82.0389 379.148 81.7551C378.203 81.4718 376.88 81.4718 376.124 81.4718C375.558 81.4718 374.991 81.2829 374.991 80.6213C374.991 80.0537 375.652 79.7704 376.975 79.7704C380.66 79.7704 384.628 80.0537 386.423 80.0537C388.313 80.0537 392.186 79.7704 395.681 79.7704C396.721 79.7704 397.382 80.0537 397.382 80.6213C397.382 81.188 396.815 81.4718 395.87 81.4718C394.926 81.4718 393.792 81.6606 392.469 82.0389C390.297 82.606 388.407 85.2527 385.572 89.4123L370.078 111.72Z" fill="#2C6BFF"/>
</svg>
