<svg width="434" height="434" viewBox="0 0 434 434" fill="none" xmlns="http://www.w3.org/2000/svg">
<path d="M157.974 252.198C158.942 255.126 159.951 258.053 161.029 260.942C161.7 262.76 162.371 264.544 163.079 266.284C163.527 267.35 163.974 268.421 164.458 269.527C165.056 270.913 165.65 272.333 166.285 273.719C168.783 279.298 171.541 284.717 174.559 289.938C175.975 292.468 177.468 294.959 178.993 297.411C179.852 298.798 180.707 300.179 181.638 301.527C182.346 302.593 183.09 303.703 183.839 304.77C184.286 305.481 184.807 306.194 185.291 306.868C185.926 307.779 186.597 308.686 187.268 309.597C188.091 310.746 188.944 311.89 189.803 313C189.839 313 189.876 312.961 189.912 312.922C198.744 305.724 206.868 297.378 214.102 288.119C214.29 287.882 214.436 287.684 214.586 287.446C214.514 287.407 212.463 284.557 211.531 283.132C211.084 282.54 210.673 281.944 210.303 281.353C209.558 280.287 208.85 279.215 208.216 278.111C207.618 277.199 207.061 276.331 206.54 275.42C205.982 274.592 205.494 273.719 205.01 272.852C204.115 271.349 203.256 269.847 202.439 268.3C202.288 268.101 202.179 267.864 202.105 267.665C201.174 265.964 200.279 264.224 199.461 262.445C199.201 262.091 199.014 261.694 198.863 261.296C198.192 259.954 197.598 258.645 197 257.263C194.799 252.436 192.863 247.491 191.15 242.388C187.31 231.036 184.665 219.127 183.323 206.786C182.652 200.654 182.318 194.446 182.318 188.154C182.318 185.818 182.355 183.486 182.469 181.15C182.542 179.051 182.656 176.958 182.844 174.858C182.88 174.384 182.916 173.947 182.953 173.472C183.063 172.13 183.177 170.821 183.364 169.478C183.437 168.528 183.551 167.578 183.661 166.628C183.994 163.977 184.405 161.325 184.889 158.718C185.113 157.293 185.373 155.911 185.671 154.525C185.707 154.089 185.821 153.613 185.931 153.182C186.227 151.641 186.566 150.138 186.935 148.631C187.086 147.957 187.232 147.327 187.383 146.731C187.758 145.228 188.127 143.764 188.575 142.34C189.73 138.108 191.036 133.993 192.525 129.917C193.045 128.492 193.607 127.066 194.164 125.685C194.201 125.569 194.237 125.409 194.315 125.287C194.836 123.901 195.434 122.558 195.991 121.211C197.594 117.455 199.384 113.737 201.284 110.135C201.617 109.462 201.992 108.793 202.366 108.119C202.553 107.683 202.777 107.29 203 106.893C203.074 106.777 203.151 106.655 203.224 106.539C203.298 106.423 203.375 106.302 203.448 106.185C209.823 95.6623 224.396 95.7399 230.657 106.423C230.73 106.462 230.73 106.5 230.766 106.583C230.802 106.622 230.839 106.699 230.875 106.743C230.875 106.781 230.912 106.859 230.948 106.903C230.986 106.98 231.022 107.063 231.058 107.14C231.319 107.576 231.543 108.013 231.766 108.444C232.027 108.841 232.25 109.316 232.474 109.748C233.182 111.173 233.89 112.554 234.597 113.941C235.378 115.521 236.128 117.105 236.835 118.73C237.169 119.442 237.507 120.154 237.803 120.906C237.876 121.022 237.913 121.182 237.991 121.304C238.588 122.69 239.146 124.071 239.703 125.496C240.151 126.563 240.562 127.634 240.931 128.738C241.342 129.727 241.712 130.716 242.05 131.744C242.571 133.131 243.055 134.55 243.502 136.014C243.95 137.439 244.397 138.864 244.809 140.284C245.256 141.865 245.704 143.45 246.115 145.029C246.489 146.455 246.859 147.919 247.196 149.343C247.233 149.504 247.27 149.659 247.307 149.818C247.531 150.807 247.754 151.796 247.941 152.785C248.165 153.774 248.352 154.724 248.539 155.713C248.873 157.492 249.211 159.232 249.471 161.015C249.767 162.877 250.028 164.733 250.293 166.633C250.48 168.096 250.626 169.599 250.777 171.063C250.928 172.527 251.074 174.03 251.152 175.494C251.225 176.084 251.261 176.72 251.303 177.311C251.376 178.615 251.453 179.963 251.489 181.305C251.526 182.134 251.563 183.006 251.563 183.835C251.599 184.548 251.599 185.26 251.599 185.973C251.636 186.724 251.636 187.436 251.636 188.149C251.636 189.773 251.599 191.353 251.563 192.976C251.526 193.927 251.526 194.916 251.453 195.904C251.416 196.932 251.38 197.921 251.303 198.91C251.192 200.489 251.079 202.036 250.969 203.538C251.079 203.577 251.156 203.577 251.265 203.616C262.595 205.87 273.702 209.311 284.397 213.78C284.62 212.04 284.808 210.3 284.995 208.521V208.444C285.104 207.693 285.183 206.902 285.219 206.108C285.37 204.566 285.479 203.02 285.552 201.44C285.849 197.049 286 192.618 286 188.149C286 139.373 269.377 94.7123 241.799 60.2158C241.726 60.0995 241.648 60.0171 241.576 59.9395C241.525 59.8862 241.511 59.862 241.539 59.862C241.576 59.862 241.205 59.4645 241.055 59.2707L240.721 58.9168C228.012 44.3611 205.988 44.3611 193.278 58.9168L192.945 59.2707C192.945 59.2707 192.611 59.6681 192.461 59.862C192.36 59.9929 192.351 60.022 192.424 59.9395C192.534 59.8232 192.274 60.0995 192.2 60.2158L189.292 63.8947C188.584 64.8836 187.876 65.8336 187.168 66.7836C186.346 67.9323 185.529 69.0374 184.747 70.1863C179.081 78.2178 174.016 86.7631 169.577 95.6623C169.021 96.8111 168.459 97.9986 167.902 99.1425C167.267 100.408 166.71 101.711 166.111 102.981C164.92 105.594 163.837 108.201 162.796 110.814C162.276 112.157 161.75 113.466 161.23 114.808C160.746 116.151 160.262 117.498 159.778 118.841C159.294 120.184 158.846 121.531 158.398 122.918C157.951 124.26 157.503 125.646 157.092 126.994C156.681 128.336 156.27 129.684 155.9 131.027C155.864 131.104 155.864 131.142 155.827 131.225C155.453 132.612 155.083 133.954 154.745 135.341C154.37 136.727 154.001 138.147 153.662 139.572C153.366 140.798 153.105 142.024 152.804 143.289C152.47 144.87 152.133 146.493 151.836 148.117C151.539 149.542 151.279 150.968 151.055 152.431C150.795 153.895 150.571 155.32 150.347 156.784C149.863 159.91 149.452 163.075 149.119 166.24C148.859 168.969 148.598 171.737 148.447 174.548C148.151 179.056 148 183.568 148 188.154C148 197.727 148.635 207.183 149.9 216.398C151.539 228.738 154.297 240.686 157.987 252.198H157.974Z" fill="#9747FF"/>
<path d="M146.683 218.005C146.683 218.005 65.2809 246.676 37.7002 341.552C37.7002 341.552 31.0138 369.102 58.9663 381.179C58.9663 381.179 141.117 405.782 215.41 343.83C215.41 343.83 255.088 314.431 275 257.454C275 257.454 253.385 248.281 242.041 246.928C242.041 246.928 230.871 275.274 215.424 293.241C215.424 293.241 181.932 338.526 123.967 347.689C66.0014 356.857 81.889 324.195 81.889 324.195C81.889 324.195 106.051 274.484 154.92 253.885C154.92 253.885 147.422 230.028 146.683 218V218.005Z" fill="#9747FF"/>
<path d="M218.973 344.154C218.973 344.154 283.664 403.795 375.002 380.674C375.002 380.674 400.856 372.751 396.507 341.123C396.507 341.123 374.864 253.692 286.655 217.47C286.655 217.47 242.548 196.247 186 207.08C186 207.08 189.495 231.454 194.151 242.486C194.151 242.486 222.928 238.251 245.415 243.191C245.415 243.191 299.329 250.69 336.221 298.882C373.117 347.074 338.427 349.201 338.427 349.201C338.427 349.201 285.641 352.461 244.043 318.375C244.043 318.375 228.401 337.349 218.973 344.149V344.154Z" fill="#9747FF"/>
</svg>
