<svg width="294" height="294" viewBox="0 0 294 294" fill="none" xmlns="http://www.w3.org/2000/svg">
<g clip-path="url(#clip0_11051_5570)">
<path d="M161.852 147.505L213.347 198.62L243.936 198.435L191.674 146.897L244 95.3199L213.808 94.9121L161.852 147.505Z" fill="#2C6BFF"/>
<path d="M147.723 132.018L198.918 80.6047L198.734 50.0652L147.114 102.243L95.4555 50L95.0469 80.1442L147.723 132.018Z" fill="#2C6BFF"/>
<path d="M132.148 146.027L80.6533 94.9121L50.0653 95.0966L102.326 146.635L50 198.212L80.1921 198.62L132.148 146.027Z" fill="#2C6BFF"/>
<path d="M146.281 161.98L95.0859 213.394L95.2704 243.934L146.89 191.755L198.549 243.999L198.957 213.854L146.281 161.98Z" fill="#2C6BFF"/>
</g>
<defs>
<clipPath id="clip0_11051_5570">
<rect width="294" height="294" fill="white"/>
</clipPath>
</defs>
</svg>
