<svg width="441" height="500" viewBox="0 0 441 500" fill="none" xmlns="http://www.w3.org/2000/svg">
<mask id="mask0_2329_62551" style="mask-type:luminance" maskUnits="userSpaceOnUse" x="0" y="0" width="441" height="500">
<path d="M440.378 0H0V500H440.378V0Z" fill="white"/>
</mask>
<g mask="url(#mask0_2329_62551)">
<path d="M309.574 238.391C278.808 234.282 260.271 232.467 208.389 253.487C165.584 270.877 113.51 249.952 105.102 184.98C97.6495 109.689 216.32 66.5966 261.513 167.208C280.145 213.931 405.121 226.352 406.363 108.16C404.357 -0.382171 289.7 1.86899e-05 289.7 1.86899e-05H0V496.847H310.529C382.763 496.847 440.378 441.429 440.378 369.196C440.378 296.962 370.438 247.659 309.574 238.391Z" fill="white"/>
</g>
</svg>
