<svg xmlns="http://www.w3.org/2000/svg" version="1.1" xmlns:xlink="http://www.w3.org/1999/xlink" width="512" height="512" x="0" y="0" viewBox="0 0 152 152" style="enable-background:new 0 0 512 512" xml:space="preserve" class=""><g><radialGradient id="a" cx="76" cy="76" r="76" gradientUnits="userSpaceOnUse"><stop offset="0" stop-color="#6401d9"></stop><stop offset=".99" stop-color="#5201b3"></stop></radialGradient><g data-name="Layer 2"><g data-name="49.Yahoo"><rect width="152" height="152" fill="url(#a)" rx="76" opacity="1" data-original="url(#a)" class=""></rect><g fill="#fff"><path d="M133.2 26c-11.08 20.34-26.75 41.32-46.33 60.9S46.31 122.12 26 133.2q-1.91-1.66-3.71-3.46A76 76 0 1 1 129.74 22.26q1.8 1.8 3.46 3.74z" opacity="1" fill="#ffffff10" data-original="#ffffff10" class=""></path><path d="M70.07 55.63 60 80.62l-9.75-25a1.92 1.92 0 0 0-1.78-1.22H34.92a1.91 1.91 0 0 0-1.77 2.63l18.24 44.77-4.66 11.54A1.91 1.91 0 0 0 48.5 116h13.09a1.9 1.9 0 0 0 1.77-1.19l23.35-57.74A1.91 1.91 0 0 0 85 54.44H71.83a1.9 1.9 0 0 0-1.76 1.19zM102.2 37.19A1.92 1.92 0 0 1 104 36h13.11a1.9 1.9 0 0 1 1.77 2.62L105 72.74a1.91 1.91 0 0 1-1.77 1.2H90.14a1.91 1.91 0 0 1-1.77-2.63z" fill="#ffffff" opacity="1" data-original="#ffffff"></path><circle cx="91.18" cy="90.35" r="10.59" fill="#ffffff" opacity="1" data-original="#ffffff"></circle></g></g></g></g></svg>